PathFileType	4	(X/Y/Z)	/Users/itak/Documents/Research/Walk-IL/dataset/trc/00131_00007.trc
DataRate	CameraRate	NumFrames	NumMarkers	Units	OrigDataRate	OrigDataStartFrame	OrigNumFrames
100.000000	100.000000	4	53	mm	100.000000	534	712
Frame#	Time	RPSI			LPSI			L3			STRN			T10			C7			CLAV			RBAK			LBAK			LSHO			LUPA			LAEL			LAOL			LWTS			LWPS			LFRA			LIFD			LHPS			LHTS			RSHO			RUPA			RAEL			RAOL			RWTS			RWPS			RFRA			RIFD			RHTS			RHPS			RBHD			LFHD			RFHD			LBHD			LHIP			RHIP			RASI			LASI			LKNE			LTHI			LANK			LTIP			LTOE			LMT1			LMT5			LHEE			RKNE			RTHI			RANK			RTIP			RTOE			RMT1			RMT5			RHEE			
		X1	Y1	Z1	X2	Y2	Z2	X3	Y3	Z3	X4	Y4	Z4	X5	Y5	Z5	X6	Y6	Z6	X7	Y7	Z7	X8	Y8	Z8	X9	Y9	Z9	X10	Y10	Z10	X11	Y11	Z11	X12	Y12	Z12	X13	Y13	Z13	X14	Y14	Z14	X15	Y15	Z15	X16	Y16	Z16	X17	Y17	Z17	X18	Y18	Z18	X19	Y19	Z19	X20	Y20	Z20	X21	Y21	Z21	X22	Y22	Z22	X23	Y23	Z23	X24	Y24	Z24	X25	Y25	Z25	X26	Y26	Z26	X27	Y27	Z27	X28	Y28	Z28	X29	Y29	Z29	X30	Y30	Z30	X31	Y31	Z31	X32	Y32	Z32	X33	Y33	Z33	X34	Y34	Z34	X35	Y35	Z35	X36	Y36	Z36	X37	Y37	Z37	X38	Y38	Z38	X39	Y39	Z39	X40	Y40	Z40	X41	Y41	Z41	X42	Y42	Z42	X43	Y43	Z43	X44	Y44	Z44	X45	Y45	Z45	X46	Y46	Z46	X47	Y47	Z47	X48	Y48	Z48	X49	Y49	Z49	X50	Y50	Z50	X51	Y51	Z51	X52	Y52	Z52	X53	Y53	Z53	

535	5.34	734.960693359375	1103.888427734375	224.3243713378906	870.1126708984375	1107.833129882812	235.3763427734375	804.4089965820312	1144.111694335938	221.6847839355469	774.8618774414062	1350.333740234375	439.8594665527344	804.648193359375	1295.7744140625	184.4021606445312	803.1232299804688	1588.881591796875	217.0386962890625	776.9349975585938	1484.056640625	400.7311401367188	729.0859985351562	1399.391479492188	156.9422912597656	904.9285278320312	1574.316162109375	223.4347686767578	963.391357421875	1565.588623046875	317.4695434570312	1039.501953125	1436.203125	304.1947631835938	1070.385986328125	1218.990600585938	309.1687316894531	1013.828247070312	1206.326538085938	242.5007171630859	1046.166625976562	949.64990234375	384.6686401367188	1074.519775390625	935.1458129882812	301.3099670410156	1082.327758789062	1103.203735351562	315.5735778808594	1032.929077148438	757.0732421875	372.9183654785156	1079.83447265625	857.2026977539062	321.8753356933594	1062.957885742188	859.1653442382812	389.7936096191406	616.3665161132812	1561.206420898438	249.6025695800781	557.8931274414062	1485.000122070312	225.4413146972656	547.3427124023438	1189.910522460938	219.9958038330078	643.330810546875	1191.262939453125	230.6353607177734	530.788330078125	962.3593139648438	384.55810546875	517.8024291992188	936.1923828125	306.6344909667969	528.0357055664062	1117.93359375	245.4822692871094	543.7932739257812	773.5740356445312	434.6034851074219	517.7579956054688	857.8040161132812	423.6857299804688	504.9175720214844	841.086181640625	352.2464904785156	716.1556396484375	1758.433837890625	247.4644470214844	766.1409301757812	1817.607543945312	453.9240417480469	647.98486328125	1802.770629882812	405.3783264160156	842.47216796875	1779.214965820312	290.2515258789062	969.3988037109375	1027.2900390625	347.1082458496094	607.6817626953125	1011.933227539062	344.5787658691406	651.02294921875	1089.386962890625	426.9486999511719	914.7369384765625	1097.255249023438	445.4093017578125	958.9473876953125	536.5426025390625	516.1842651367188	980.5756225585938	681.3001708984375	455.80615234375	1028.635131835938	208.8307189941406	95.93402099609375	1018.119812011719	391.3670654296875	289.7752380371094	989.4125366210938	39.31240081787109	244.8797454833984	948.9568481445312	92.19827270507812	197.0302124023438	1058.299072265625	111.4994049072266	166.5134582519531	962.82080078125	256.5801391601562	56.8084716796875	704.0086669921875	524.8023681640625	404.1917724609375	633.9478759765625	800.1265869140625	389.5181274414062	822.4351806640625	24.95721626281738	364.1060791015625	717.4415283203125	388.4185485839844	391.8603210449219	786.006103515625	41.31736373901367	598.9805297851562	845.2601318359375	33.32194137573242	556.47900390625	753.6633911132812	41.14330673217773	479.4043273925781	888.3102416992188	26.10898590087891	329.7013244628906	
536	5.350000000000001	735.353515625	1104.19140625	231.0471801757812	870.3326416015625	1108.496826171875	244.2454071044922	804.6543579101562	1144.591552734375	229.3480224609375	771.8671875	1351.054565429688	447.1303100585938	805.0165405273438	1296.350952148438	192.1583099365234	802.9983520507812	1589.437255859375	224.7477416992188	774.7628784179688	1484.7685546875	408.0717163085938	729.486572265625	1400.055053710938	163.7017059326172	904.6668090820312	1574.832763671875	232.2240295410156	962.2388305664062	1566.16259765625	326.8501586914062	1038.478759765625	1436.745971679688	313.7488708496094	1068.846069335938	1219.437744140625	317.4254760742188	1012.511779785156	1207.213134765625	250.5149383544922	1043.749755859375	949.997314453125	392.1783447265625	1072.120971679688	935.52099609375	308.8305358886719	1080.429443359375	1103.435180664062	323.5981750488281	1029.682373046875	757.4976806640625	380.1507568359375	1077.072265625	857.487548828125	329.2681274414062	1060.167724609375	859.4375610351562	397.1686401367188	615.9365234375	1562.034301757812	255.1413726806641	557.5811767578125	1485.8671875	230.5137329101562	546.391357421875	1190.586791992188	226.0999755859375	642.289794921875	1191.765380859375	237.5240783691406	527.6074829101562	965.3224487304688	393.4927673339844	515.3927001953125	937.9813232421875	315.8294677734375	526.7086181640625	1118.844848632812	252.2366027832031	539.4144897460938	777.2484741210938	446.4954833984375	513.821533203125	861.4063110351562	434.0451049804688	501.6752014160156	843.5972900390625	362.7132263183594	715.6435546875	1759.364868164062	254.7096557617188	763.8007202148438	1817.797241210938	461.7878112792969	646.0718994140625	1803.163940429688	412.1407775878906	841.5595092773438	1779.868896484375	298.6691284179688	967.7069702148438	1028.249633789062	358.4207153320312	606.1149291992188	1011.983337402344	349.170166015625	647.7942504882812	1089.781616210938	432.1517333984375	911.203125	1098.31640625	455.126220703125	951.8018798828125	539.9573364257812	534.2800903320312	975.7205200195312	683.71728515625	472.00390625	1032.124633789062	202.6811828613281	123.9845657348633	1016.315368652344	390.3072204589844	312.1741027832031	991.46923828125	39.33963775634766	279.0818176269531	951.3784790039062	89.37849426269531	227.8765411376953	1061.296508789062	109.0991821289062	199.5414428710938	966.78515625	247.9799041748047	81.18963623046875	703.1767578125	524.5283813476562	406.2276611328125	632.622802734375	799.5004272460938	392.7310791015625	822.5536499023438	24.95712471008301	364.1878051757812	717.1068115234375	388.2850341796875	393.2511291503906	785.8914184570312	40.99946975708008	599.224853515625	845.2901000976562	33.26733016967773	556.5770874023438	753.5953979492188	40.97220611572266	479.4764404296875	888.4537963867188	26.16939353942871	329.7539978027344	
537	5.36	735.7939453125	1104.492309570312	237.7160186767578	870.6024169921875	1109.24951171875	253.0868377685547	804.9395141601562	1145.028076171875	236.9914703369141	768.7695922851562	1351.695434570312	454.3619995117188	805.3439331054688	1296.882202148438	199.9547119140625	802.857666015625	1589.95947265625	232.4717559814453	772.503173828125	1485.404174804688	415.3930358886719	729.8876953125	1400.705444335938	170.4180297851562	904.3704833984375	1575.287719726562	241.0509185791016	961.0086059570312	1566.631103515625	336.2674560546875	1037.393432617188	1437.203979492188	323.3525390625	1067.325439453125	1219.823364257812	325.7764282226562	1011.275146484375	1208.00732421875	258.5858154296875	1041.313232421875	950.3486938476562	399.9530944824219	1069.784301757812	935.8124389648438	316.655517578125	1078.566284179688	1103.620849609375	331.7739868164062	1026.296997070312	757.922119140625	387.7911987304688	1074.291015625	857.6978759765625	337.0288696289062	1057.25732421875	859.6954345703125	404.8854675292969	615.493408203125	1562.823486328125	260.64404296875	557.2888793945312	1486.698608398438	235.5003509521484	545.4880981445312	1191.228515625	231.9935607910156	641.3057861328125	1192.260009765625	244.1854553222656	524.51953125	968.2667846679688	402.1614074707031	513.0271606445312	939.7579345703125	324.7716064453125	525.430419921875	1119.714721679688	258.7675170898438	535.177978515625	780.9528198242188	458.0689392089844	509.9902648925781	864.9945678710938	444.0965576171875	498.5116271972656	846.0896606445312	372.9193420410156	715.1282958984375	1760.196044921875	261.8863220214844	761.4259643554688	1818.036254882812	469.5372009277344	644.1373291015625	1803.583740234375	418.7803344726562	840.6159057617188	1780.443481445312	307.0617370605469	965.8935546875	1029.21337890625	369.7109069824219	604.5816650390625	1011.957275390625	353.6371154785156	644.524658203125	1090.078369140625	437.195556640625	907.5274658203125	1099.3232421875	464.8172302246094	944.4302978515625	543.3613891601562	551.685791015625	970.6181640625	686.1320190429688	487.7535705566406	1035.017944335938	195.7544097900391	152.6891021728516	1014.198791503906	388.7894287109375	334.4135131835938	992.689453125	39.38435363769531	314.0635070800781	953.1058959960938	86.32447814941406	259.5309753417969	1063.477661132812	106.3236999511719	233.2362213134766	970.315185546875	238.4126586914062	106.2214660644531	702.3582763671875	524.2511596679688	408.2356262207031	631.3169555664062	798.8941650390625	395.8150939941406	822.5982666015625	25.01321601867676	364.244140625	716.8145751953125	388.1530456542969	394.6363830566406	785.763916015625	40.68772888183594	599.4654541015625	845.3309326171875	33.20827102661133	556.6883544921875	753.513671875	40.79841232299805	479.5708618164062	888.6041259765625	26.27291679382324	329.820068359375	
538	5.37	736.2874145507812	1104.789672851562	244.3352661132812	870.9241943359375	1110.079956054688	261.9032897949219	805.2547607421875	1145.41015625	244.6595001220703	765.5703125	1352.250732421875	461.5472106933594	805.6390991210938	1297.361938476562	207.7902526855469	802.7013549804688	1590.447021484375	240.2068328857422	770.1520385742188	1485.956176757812	422.6887512207031	730.2997436523438	1401.3408203125	177.0899963378906	904.0377197265625	1575.676025390625	249.9169769287109	959.6979370117188	1566.982177734375	345.725830078125	1036.2265625	1437.559326171875	333.0194396972656	1065.8076171875	1220.133056640625	334.262451171875	1010.122131347656	1208.691772460938	266.7408752441406	1038.830322265625	950.6774291992188	407.9955749511719	1067.52587890625	936.0155029296875	324.7973937988281	1076.731079101562	1103.76220703125	340.1265869140625	1022.831848144531	758.3187866210938	395.7977600097656	1071.527465820312	857.8340454101562	345.1604309082031	1054.240356445312	859.9202270507812	412.9410095214844	615.03857421875	1563.563720703125	266.1025390625	557.0160522460938	1487.485107421875	240.3924865722656	544.6337890625	1191.825561523438	237.7026824951172	640.3798217773438	1192.742309570312	250.6380615234375	521.5421752929688	971.1528930664062	410.5630798339844	510.7130126953125	941.5022583007812	333.4610900878906	524.1990966796875	1120.532470703125	265.0987548828125	531.0784301757812	784.6434326171875	469.2931213378906	506.2702026367188	868.528076171875	453.8249206542969	495.4296569824219	848.5442504882812	382.8447875976562	714.6109008789062	1760.920654296875	268.9991455078125	759.0134887695312	1818.319213867188	477.1832580566406	642.18115234375	1804.023315429688	425.3037719726562	839.6470336914062	1780.943115234375	315.4188232421875	963.951904296875	1030.1728515625	380.9547424316406	603.099853515625	1011.860290527344	357.9450073242188	641.2234497070312	1090.287719726562	442.0848388671875	903.7118530273438	1100.263061523438	474.4832153320312	936.8778686523438	546.7169799804688	568.3761596679688	965.2979736328125	688.5032348632812	503.0442810058594	1037.251342773438	188.1669769287109	182.0292663574219	1011.767578125	386.8227844238281	356.506591796875	992.9086303710938	39.48117446899414	349.6410827636719	954.0291748046875	83.1495361328125	291.8834228515625	1064.745483398438	103.2438812255859	267.4993896484375	973.3567504882812	228.0137023925781	131.9136505126953	701.5631713867188	523.9764404296875	410.2401428222656	630.01025390625	798.3529663085938	398.8262329101562	822.575439453125	25.13205718994141	364.2810363769531	716.5713500976562	388.0201416015625	396.0291442871094	785.6272583007812	40.37208938598633	599.7154541015625	845.38671875	33.13470840454102	556.8193969726562	753.4207763671875	40.6200065612793	479.6883850097656	888.7265625	26.43358612060547	329.9019775390625	
